<mxfile host="app.diagrams.net" modified="2023-06-11T14:28:03.543Z" agent="Mozilla/5.0 (Macintosh; Intel Mac OS X 10_15_7) AppleWebKit/537.36 (KHTML, like Gecko) Chrome/114.0.0.0 Safari/537.36" version="21.3.8" etag="1KdhfaY_wseSousBv-Pu" type="github">
  <diagram name="第 1 页" id="gJKg76zQNAvcmW5g9D3D">
    <mxGraphModel>
      <root>
        <mxCell id="0" />
        <mxCell id="1" parent="0" />
      </root>
    </mxGraphModel>
  </diagram>
</mxfile>
